<!-- Generated by IcoMoon.io -->
<svg version="1.1" xmlns="http://www.w3.org/2000/svg" width="640" height="640" viewBox="0 0 640 640">
<title></title>
<g id="icomoon-ignore">
</g>
<path d="M320 416c53.019 0 96-42.981 96-96s-42.981-96-96-96-96 42.981-96 96 42.981 96 96 96zM320 242c43.079 0 78 34.922 78 78s-34.923 78-78 78-78-34.923-78-78 34.923-78 78-78zM272 284c0-6.629 5.373-12 12-12s12 5.373 12 12c0 6.627-5.373 12-12 12s-12-5.373-12-12zM344 284c0-6.629 5.373-12 12-12s12 5.373 12 12c0 6.627-5.371 12-12 12s-12-5.373-12-12zM368 332v12h-12v18c0 9.941-8.059 18-18 18s-18-8.059-18-18v-18h-48v-12h96z"></path>
</svg>
